PathFileType	4	(X/Y/Z)	C:\Users\WrightLab\Desktop\Jo\P5V33.trc
DataRate	CameraRate	NumFrames	NumMarkers	Units	OrigDataRate	OrigDataStartFrame	OrigNumFrames
100.00	100.00	      40	19	mm	100.00	1	      1066
Frame#	Time	Headset_Front			Headset_Back			Headset_Left			Headset_Right			Left_Shoulder			Right_Shoulder			Sternum			C7			Left Elbow			Right Elbow			Left Wrist			Right Wrist			Left ASIS			Right ASIS			S2			Left Knee			Right Knee			Left Ankle			Right Ankle			
		X1	Y1	Z1	X2	Y2	Z2	X3	Y3	Z3	X4	Y4	Z4	X5	Y5	Z5	X6	Y6	Z6	X7	Y7	Z7	X8	Y8	Z8	X9	Y9	Z9	X10	Y10	Z10	X11	Y11	Z11	X12	Y12	Z12	X13	Y13	Z13	X14	Y14	Z14	X15	Y15	Z15	X16	Y16	Z16	X17	Y17	Z17	X18	Y18	Z18	X19	Y19	Z19	

1	0.000																												-556.35828	1163.43591	-1353.37317				-440.59818	1118.90295	-1151.54578	-99.64021	923.30145	-1280.46265	-367.49603	932.28461	-1237.47107							-419.07584	464.11884	-1280.39905							
2	0.010																												-556.36206	1163.62170	-1353.42310				-440.77362	1118.95215	-1151.89514	-99.68650	923.25616	-1280.49841	-367.54858	932.31573	-1237.81970							-419.00174	464.03235	-1281.53345							
3	0.020																												-555.54901	1166.88379	-1345.18799				-441.04327	1118.76074	-1152.59509	-99.79187	923.20459	-1280.57898	-368.39871	932.33606	-1237.62097							-418.31567	463.20004	-1281.80115							
4	0.030																												-555.04767	1167.64990	-1347.90039				-441.66742	1119.39502	-1152.86621	-100.02789	923.17505	-1277.92139	-368.52502	932.22668	-1237.93127							-417.68555	463.21915	-1281.94971							
5	0.040																												-555.68066	1165.51807	-1355.51208				-441.97958	1119.25574	-1153.69653	-100.67103	923.30939	-1278.22156	-369.12704	932.10590	-1237.93726							-417.92380	463.54684	-1282.82568							
6	0.050																												-555.58490	1165.78381	-1355.15613				-442.25204	1119.27185	-1154.04346	-101.29985	922.77386	-1277.48779	-369.18390	932.12885	-1237.94983							-417.75580	463.84833	-1282.55334							
7	0.060																												-554.59808	1167.65784	-1349.21716				-442.88815	1119.86792	-1154.15527	-101.98296	922.57239	-1277.79712	-369.31909	932.03735	-1238.26355							-417.75598	463.86652	-1282.55566							
8	0.070																												-554.43927	1168.22534	-1350.80042				-443.63940	1119.83081	-1155.66394	-102.00462	922.55078	-1277.81384	-369.53171	931.89496	-1238.24707							-417.85745	463.75830	-1282.89063							
9	0.080																												-553.88300	1168.24231	-1351.50183				-443.81708	1119.93408	-1155.71362	-101.93161	922.08820	-1285.01428	-369.67593	931.93585	-1238.27722							-417.95328	463.46817	-1283.85144							
10	0.090																												-553.73236	1168.25940	-1351.77734				-444.06076	1119.86096	-1155.92542	-101.98215	921.98041	-1285.29468	-369.84302	931.89215	-1238.10010							-417.91934	463.50894	-1284.16968							
11	0.100																												-553.60321	1168.21887	-1351.94617				-444.10281	1119.88220	-1155.93677	-102.03776	921.84119	-1285.60107	-370.05490	931.77911	-1238.32434							-417.94022	463.44333	-1284.53406							
12	0.110																												-553.47565	1168.15564	-1352.16272				-444.73825	1120.19727	-1156.25171	-102.03056	921.78418	-1285.55408	-370.15570	931.79919	-1238.34460							-417.97620	463.46912	-1284.54163							
13	0.120																												-553.34271	1168.10156	-1352.33813				-444.80838	1120.27588	-1156.54724	-103.00111	921.80811	-1276.26611	-370.59653	931.73804	-1238.24548							-418.00171	463.49472	-1284.54797							
14	0.130																												-552.94971	1168.39685	-1353.29651				-445.01825	1120.08142	-1157.05896	-102.81969	920.56763	-1274.15552	-370.81836	931.62518	-1238.21814							-418.01089	463.50565	-1284.55042							
15	0.140																												-552.44788	1168.63025	-1354.03723				-445.22275	1119.88708	-1157.46948	-102.76588	920.53424	-1274.11536	-370.93271	931.67267	-1238.24353							-418.17780	463.33881	-1284.57825							
16	0.150																												-551.98151	1168.38342	-1353.93176				-445.32516	1119.76550	-1157.74060	-102.65460	920.47919	-1284.21509	-371.59274	931.93237	-1238.44153							-418.18417	463.33771	-1284.57886							
17	0.160																												-551.73022	1168.86377	-1355.02808				-445.38376	1119.79480	-1157.75647	-102.69933	920.34772	-1284.45972	-371.67358	931.97235	-1238.46008							-418.67670	463.44678	-1284.16113							
18	0.170																												-551.59857	1168.87573	-1355.06726				-445.51544	1119.60986	-1157.87512	-102.62604	920.40393	-1284.04382	-371.74454	932.00220	-1238.47583							-419.76468	463.98248	-1283.94604							
19	0.180																												-551.49542	1168.89722	-1355.10999				-445.58466	1119.53723	-1158.19043	-102.58727	920.39923	-1283.82056	-371.91476	931.81250	-1238.56201							-419.98553	463.80847	-1283.80969							
20	0.190																												-551.53046	1169.33020	-1356.01990				-445.82123	1119.17163	-1158.74646	-103.62372	919.97455	-1280.17810	-372.10544	931.72919	-1238.41309							-420.26151	463.60248	-1284.03809							
21	0.200																												-551.44055	1169.30762	-1356.08264				-445.91101	1119.03931	-1159.02075	-103.48455	920.01392	-1279.38391	-372.16516	931.75482	-1238.42639							-421.07309	463.80978	-1284.03735							
22	0.210																												-551.35413	1169.31934	-1356.09680				-446.57745	1119.15869	-1159.17053	-103.44378	919.92499	-1279.14172	-372.21649	931.75726	-1238.43591							-421.15912	464.02966	-1284.46790							
23	0.220																												-550.95129	1169.43958	-1356.66443				-447.31476	1119.12793	-1159.05237	-103.02277	918.98822	-1279.94507	-372.21268	931.77820	-1238.43726							-421.54529	464.13818	-1283.81702							
24	0.230																												-550.85229	1169.43481	-1356.74890				-447.74365	1118.97192	-1158.96167	-103.07727	919.98871	-1268.63257	-372.22614	931.77612	-1238.43945							-422.94070	463.98618	-1284.44617							
25	0.240																												-550.75635	1169.39355	-1356.90869				-448.25443	1119.42261	-1159.02185	-103.05398	919.94464	-1268.61560	-372.23492	931.74860	-1238.43848							-423.54495	464.12091	-1284.71204							
26	0.250																												-550.47107	1169.81116	-1358.09753				-448.49609	1119.26257	-1159.22864	-103.01051	919.62744	-1267.55664	-372.24390	931.75085	-1238.44031							-423.78406	464.02753	-1285.04321							
27	0.260																												-550.11139	1170.16284	-1359.05286				-448.67603	1119.27380	-1159.26929	-102.91690	919.57684	-1267.48682	-372.25473	931.78430	-1238.10986							-424.16373	463.90820	-1285.07605							
28	0.270																												-549.90674	1170.20715	-1358.98853				-449.36548	1118.79346	-1159.06433	-102.96119	919.15576	-1267.49219	-372.24066	931.84357	-1237.77747							-424.35367	463.77011	-1284.96021							
29	0.280																												-549.67816	1170.30176	-1358.97998				-450.45026	1118.52930	-1159.20496	-102.86540	919.11505	-1267.42078	-372.21121	931.94647	-1237.46790							-424.66144	463.91089	-1285.25549							
30	0.290																												-549.43005	1170.45959	-1358.81116				-450.64291	1118.53394	-1159.24768	-102.80988	919.07391	-1267.37952	-372.18375	931.94366	-1237.46265							-424.84750	463.75348	-1285.44495							
31	0.300																												-549.12689	1171.26208	-1359.72266				-450.93420	1118.29358	-1159.20227	-102.76923	918.74182	-1266.32324	-372.57397	932.58167	-1236.74890							-424.89969	463.73636	-1285.70081							
32	0.310																												-548.82349	1171.50073	-1359.49023				-451.09937	1118.34143	-1159.24341	-102.69870	919.38489	-1264.54163	-372.48285	932.78943	-1236.75842							-425.25522	463.41321	-1286.06238							
33	0.320																												-548.53125	1171.73987	-1359.30286				-451.19949	1118.34851	-1158.99463	-102.62936	919.36017	-1264.48987	-372.51575	932.84198	-1236.76953							-426.27774	463.47928	-1286.33337							
34	0.330																												-547.91162	1172.03052	-1359.71960				-452.06686	1119.20129	-1158.76990	-102.58453	919.34448	-1264.45642	-372.85974	933.32251	-1236.81445							-426.61316	463.15964	-1286.76514							
35	0.340																												-547.64313	1172.27649	-1359.66467				-452.20773	1119.28235	-1158.80908	-102.57059	919.15356	-1262.50525	-372.78418	933.53931	-1236.59949							-426.64398	463.17770	-1286.77966							
36	0.350																												-547.14014	1172.83997	-1360.59131				-452.28168	1119.36194	-1158.83337	-102.51242	919.65753	-1261.65234	-372.75058	933.69226	-1236.31909							-426.66043	463.17419	-1286.78613							
37	0.360																												-546.59784	1173.15576	-1361.41309				-452.35486	1119.44641	-1158.85803	-102.48928	919.62323	-1261.63525	-372.61151	933.84882	-1236.37671							-426.94171	463.31549	-1286.80542							
38	0.370																												-546.29492	1173.26819	-1361.35364				-452.74664	1120.11133	-1158.62390	-102.43951	919.58258	-1261.59839	-372.51855	934.12061	-1235.85461							-426.94821	463.31754	-1286.80823							
39	0.380																												-545.91296	1173.78333	-1362.12402				-452.73718	1120.22461	-1158.89612	-102.44307	919.19220	-1261.57227	-372.51367	934.14545	-1235.85620							-426.66403	463.19778	-1286.79004							
40	0.390																												-545.47394	1174.12488	-1362.69861				-453.68121	1121.15601	-1158.78210	-102.44209	918.86707	-1260.54907	-372.33868	934.33252	-1235.76892							-426.49326	463.37482	-1286.64941							
